<?xml version="1.0" encoding="utf-8"?>
<!-- Generator: Adobe Illustrator 16.0.0, SVG Export Plug-In . SVG Version: 6.00 Build 0)  -->
<!DOCTYPE svg PUBLIC "-//W3C//DTD SVG 1.1//EN" "http://www.w3.org/Graphics/SVG/1.1/DTD/svg11.dtd">
<svg version="1.1" id="Layer_1" xmlns="http://www.w3.org/2000/svg" xmlns:xlink="http://www.w3.org/1999/xlink" x="0px" y="0px"
	 width="160px" height="34px" viewBox="0 0 160 34" enable-background="new 0 0 160 34" xml:space="preserve">
<g>
	<g>
		<polygon fill="#4484CE" stroke="#4484CE" stroke-width="1.25" points="7.287,17.001 13.062,27.147 9.894,32.526 1,17.001 
			1,17.001 9.894,1.474 13.062,6.853 7.287,17.001 		"/>
	</g>
	<g>
		<polygon fill="#4484CE" stroke="#4484CE" stroke-width="0.7" points="18.755,13.77 20.799,10.154 25.019,17.373 20.823,17.373 		
			"/>
	</g>
	<g>
		<polygon fill="#4484CE" stroke="#4484CE" stroke-width="0.7" points="12.915,17.568 14.959,13.953 19.177,21.171 14.981,21.171 		
			"/>
	</g>
	<g>
		<polygon fill="#4484CE" stroke="#4484CE" stroke-width="1.25" points="30.783,17.001 25.007,27.147 28.175,32.526 37.07,17.001 
			37.07,17.001 28.175,1.474 25.007,6.853 30.783,17.001 		"/>
	</g>
</g>
<g>
	<path fill="#FFFFFF" d="M49.46,20.102c-0.7-0.372-1.25-0.89-1.65-1.554s-0.6-1.416-0.6-2.256c0-0.84,0.2-1.592,0.6-2.256
		s0.95-1.182,1.65-1.554c0.7-0.372,1.49-0.558,2.37-0.558c0.768,0,1.46,0.136,2.076,0.408c0.616,0.272,1.128,0.664,1.536,1.176
		l-1.512,1.368c-0.544-0.656-1.204-0.984-1.98-0.984c-0.456,0-0.862,0.1-1.218,0.3c-0.356,0.2-0.632,0.482-0.828,0.846
		c-0.196,0.364-0.294,0.782-0.294,1.254c0,0.472,0.098,0.89,0.294,1.254c0.196,0.364,0.472,0.646,0.828,0.846
		c0.355,0.2,0.762,0.3,1.218,0.3c0.776,0,1.436-0.328,1.98-0.984l1.512,1.369c-0.408,0.512-0.92,0.904-1.536,1.176
		c-0.616,0.271-1.308,0.408-2.076,0.408C50.95,20.66,50.16,20.474,49.46,20.102z"/>
	<path fill="#FFFFFF" d="M61.982,18.859H58.43l-0.66,1.633h-2.424l3.708-8.4h2.34l3.72,8.4h-2.472L61.982,18.859z M61.286,17.108
		l-1.08-2.688l-1.08,2.688H61.286z"/>
	<path fill="#FFFFFF" d="M72.53,18.656v1.836h-6.744v-8.4h6.588v1.836h-4.236v1.416h3.732v1.776h-3.732v1.537H72.53z"/>
	<path fill="#FFFFFF" d="M73.85,12.092h2.376v6.516h4.008v1.885H73.85V12.092z"/>
	<path fill="#FFFFFF" d="M82.053,19.64c-0.693-0.68-1.039-1.644-1.039-2.892v-4.656h2.376v4.584c0,1.344,0.532,2.016,1.597,2.016
		c1.056,0,1.584-0.672,1.584-2.016v-4.584h2.34v4.656c0,1.248-0.346,2.212-1.038,2.892c-0.692,0.681-1.662,1.021-2.91,1.021
		S82.744,20.32,82.053,19.64z"/>
	<path fill="#FFFFFF" d="M98.102,20.492l-0.023-4.453l-2.16,3.625h-1.057l-2.147-3.504v4.333h-2.196v-8.4h1.956l2.952,4.848
		l2.88-4.848h1.956l0.024,8.4H98.102z"/>
	<path fill="#FFFFFF" d="M113.666,20.492l-0.012-6.121l-3.036,5.1h-0.552l-3.036-5.064v6.084h-1.152v-8.4h0.984l3.504,5.904
		l3.456-5.904h0.984l0.012,8.4H113.666z"/>
	<path fill="#FFFFFF" d="M122.69,18.392h-4.464l-0.925,2.101h-1.235l3.804-8.4h1.188l3.815,8.4h-1.26L122.69,18.392z
		 M122.271,17.432l-1.813-4.116l-1.812,4.116H122.271z"/>
	<path fill="#FFFFFF" d="M126.739,20.293c-0.588-0.195-1.05-0.449-1.386-0.762l0.443-0.936c0.32,0.288,0.73,0.521,1.23,0.702
		c0.5,0.18,1.014,0.271,1.542,0.271c0.696,0,1.216-0.119,1.56-0.354c0.345-0.235,0.517-0.55,0.517-0.942
		c0-0.288-0.095-0.522-0.282-0.702c-0.188-0.18-0.42-0.318-0.696-0.414c-0.275-0.096-0.666-0.204-1.17-0.324
		c-0.632-0.152-1.142-0.304-1.529-0.456c-0.389-0.152-0.721-0.386-0.996-0.702c-0.276-0.316-0.414-0.742-0.414-1.278
		c0-0.448,0.117-0.852,0.354-1.212s0.594-0.648,1.074-0.864c0.479-0.216,1.076-0.324,1.788-0.324c0.496,0,0.984,0.064,1.464,0.192
		c0.48,0.128,0.892,0.312,1.236,0.552l-0.396,0.96c-0.352-0.224-0.728-0.394-1.128-0.51c-0.4-0.116-0.792-0.174-1.176-0.174
		c-0.68,0-1.19,0.124-1.53,0.372s-0.51,0.568-0.51,0.96c0,0.288,0.096,0.522,0.288,0.702c0.191,0.18,0.43,0.32,0.714,0.42
		s0.67,0.206,1.158,0.318c0.632,0.152,1.14,0.304,1.523,0.456c0.385,0.152,0.714,0.384,0.99,0.696
		c0.276,0.312,0.414,0.732,0.414,1.259c0,0.44-0.12,0.843-0.36,1.207c-0.239,0.363-0.604,0.651-1.092,0.863
		c-0.488,0.213-1.088,0.318-1.8,0.318C127.938,20.588,127.327,20.49,126.739,20.293z"/>
	<path fill="#FFFFFF" d="M135.121,13.136h-2.88v-1.044h6.948v1.044h-2.88v7.356h-1.188V13.136z"/>
	<path fill="#FFFFFF" d="M146.594,19.447v1.045h-6.097v-8.4h5.929v1.044h-4.729v2.58h4.212v1.02h-4.212v2.711H146.594z"/>
	<path fill="#FFFFFF" d="M154.153,20.492l-1.812-2.581c-0.225,0.016-0.4,0.024-0.528,0.024h-2.076v2.557h-1.2v-8.4h3.276
		c1.088,0,1.944,0.26,2.567,0.78c0.624,0.52,0.937,1.236,0.937,2.148c0,0.648-0.16,1.2-0.48,1.656
		c-0.319,0.456-0.775,0.788-1.367,0.996l1.991,2.82H154.153z M153.518,16.424c0.399-0.328,0.6-0.796,0.6-1.404
		c0-0.608-0.2-1.074-0.6-1.398c-0.4-0.324-0.98-0.486-1.74-0.486h-2.04v3.78h2.04C152.537,16.916,153.117,16.752,153.518,16.424z"/>
</g>
</svg>
